<svg width="32" height="32" xmlns="http://www.w3.org/2000/svg">

 <g>
  <title>background</title>
  <rect fill="none" id="canvas_background" height="402" width="582" y="-1" x="-1"/>
 </g>
 <g>
  <title>Layer 1</title>
  <path id="svg_1" fill="#ffffff" d="m10.456,16l6.196,-6.285c0.390999,-0.394 0.390999,-1.034 0,-1.428c-0.391001,-0.394 -1.024,-0.394 -1.414001,0l-6.899,6.999001c-0.375,0.379 -0.377,1.047999 0,1.429l6.900001,6.999001c0.389999,0.393999 1.024,0.393999 1.414,0c0.391001,-0.394001 0.391001,-1.034 0,-1.428001l-6.197,-6.285999z"/>
  <path id="svg_2" fill="#ffffff" d="m17.455999,16l6.196001,-6.285c0.390999,-0.394 0.390999,-1.034 0,-1.428c-0.391001,-0.394 -1.024,-0.394 -1.414,0l-6.899001,6.999001c-0.375,0.379 -0.377,1.047999 0,1.429l6.899001,6.999001c0.390999,0.393999 1.023998,0.393999 1.414,0c0.390999,-0.394001 0.390999,-1.034 0,-1.428001l-6.196001,-6.285999z"/>
 </g>
</svg>