<svg width="32" height="32" xmlns="http://www.w3.org/2000/svg">

 <g>
  <title>background</title>
  <rect fill="none" id="canvas_background" height="402" width="582" y="-1" x="-1"/>
 </g>
 <g>
  <title>Layer 1</title>
  <path id="svg_1" fill="#ffffff" d="m23.662001,15.286l-6.900002,-6.999001c-0.389999,-0.394 -1.023999,-0.394 -1.414,0c-0.391,0.394 -0.391,1.034 0,1.428l6.196001,6.285l-6.196001,6.285c-0.391,0.394001 -0.391,1.034 0,1.427999c0.391001,0.394001 1.024,0.394001 1.414,0l6.899,-6.998999c0.377001,-0.379002 0.378,-1.048 0.001001,-1.428z"/>
  <path id="svg_2" fill="#ffffff" d="m16.559568,15.337216l-6.899002,-6.999001c-0.391,-0.393999 -1.023999,-0.393999 -1.414,0c-0.390999,0.394 -0.390999,1.034 0,1.428l6.195,6.285l-6.196,6.285c-0.390999,0.394001 -0.390999,1.034 0,1.427999c0.391001,0.394001 1.024,0.394001 1.414001,0l6.899,-6.998999c0.377001,-0.379002 0.378,-1.048 0.001001,-1.428z"/>
 </g>
</svg>